<svg width="40" height="40" viewBox="0 0 40 40" fill="none" xmlns="http://www.w3.org/2000/svg">
<path d="M8 7H30L37 14L30 22H8V7Z" fill="#9C9CB1"/>
<path d="M21.2917 22.2222V32.9629Z" fill="#9C9CB1"/>
<path d="M21.2917 22.2222V32.9629" stroke="#33284D" stroke-width="2" stroke-linecap="round" stroke-linejoin="round"/>
<path d="M21.2917 3V6.22222Z" fill="#9C9CB1"/>
<path d="M21.2917 3V6.22222" stroke="#33284D" stroke-width="2" stroke-linecap="round" stroke-linejoin="round"/>
<path d="M9.52631 6.22217C9.12151 6.22217 8.73328 6.46298 8.44705 6.89164C8.16081 7.32029 8 7.90167 8 8.50788V19.9365C8 20.5427 8.16081 21.124 8.44705 21.5527C8.73328 21.9814 9.12151 22.2222 9.52631 22.2222H29.3683C29.9979 22.2222 30.612 21.9308 31.1267 21.3879L36.3527 16.0919C36.5527 15.8809 36.7159 15.601 36.8286 15.2758C36.9412 14.9506 37 14.5897 37 14.2233C37 13.857 36.9412 13.496 36.8286 13.1708C36.7159 12.8456 36.5527 12.5657 36.3527 12.3547L31.1267 7.05645C30.612 6.5135 29.9979 6.2221 29.3683 6.22217H9.52631Z" fill="#9C9CB1" stroke="#33284D" stroke-width="2" stroke-linecap="round" stroke-linejoin="round"/>
<path d="M16.3223 16.363C16.116 16.1755 16.0001 15.9212 16 15.656V12.344C16.0001 12.0788 16.116 11.8245 16.3223 11.637L18.9007 9.293C19.1069 9.10545 19.3867 9.00006 19.6784 9H23.3216C23.6133 9.00006 23.8931 9.10545 24.0993 9.293L26.6777 11.637C26.884 11.8245 26.9999 12.0788 27 12.344V15.656C26.9999 15.9212 26.884 16.1755 26.6777 16.363L24.0993 18.707C23.8931 18.8945 23.6133 18.9999 23.3216 19H19.6784C19.3867 18.9999 19.1069 18.8945 18.9007 18.707L16.3223 16.363Z" fill="#9C9CB1" stroke="#33284D" stroke-width="2" stroke-linecap="round" stroke-linejoin="round"/>
<path d="M20 14H23Z" fill="#9C9CB1"/>
<path d="M20 14H23" stroke="#33284D" stroke-width="2" stroke-linecap="round" stroke-linejoin="round"/>
</svg>
