<svg width="38" height="73" viewBox="0 0 38 73" fill="none" xmlns="http://www.w3.org/2000/svg">
<rect x="2" width="34" height="73" rx="5" fill="#185371"/>
<rect x="6" y="6" width="26" height="6" rx="1" fill="#EEEEEE"/>
<path d="M35 16H36C36.5523 16 37 16.4477 37 17V24C37 24.5523 36.5523 25 36 25H35V16Z" fill="black"/>
<path d="M35 10H37C37.5523 10 38 10.4477 38 11V12C38 12.5523 37.5523 13 37 13H35V10Z" fill="black"/>
<path d="M35 52H36C36.5523 52 37 52.4477 37 53V60C37 60.5523 36.5523 61 36 61H35V52Z" fill="black"/>
<path d="M1 17C1 16.4477 1.44772 16 2 16H3V25H2C1.44772 25 1 24.5523 1 24V17Z" fill="black"/>
<path d="M0 11C0 10.4477 0.447715 10 1 10H3V13H1C0.447715 13 0 12.5523 0 12V11Z" fill="black"/>
<path d="M1 53C1 52.4477 1.44772 52 2 52H3V61H2C1.44772 61 1 60.5523 1 60V53Z" fill="black"/>
<path d="M6 3C6 2.44772 6.44772 2 7 2H10C10.5523 2 11 2.44772 11 3C11 3.55228 10.5523 4 10 4H7C6.44772 4 6 3.55228 6 3Z" fill="#D9D9D9"/>
<path d="M27 3C27 2.44772 27.4477 2 28 2H31C31.5523 2 32 2.44772 32 3C32 3.55228 31.5523 4 31 4H28C27.4477 4 27 3.55228 27 3Z" fill="#D9D9D9"/>
</svg>
